# xmcd CD database file
#
# Track frame offsets:
#	187
#	20352
#	38297
#
# Disc length: 776 seconds
#
# Revision: 5
# Processed by: cddbd v1.5.1PL2 Copyright (c) Steve Scherf et al.
# Submitted via: CDex 1.51
#
DISCID=12030603
DTITLE=GLAY - SOUL LOVE
DYEAR=1998
DGENRE=Rock
TTITLE0=SOUL LOVE
TTITLE1=アイ
TTITLE2=SOUL LOVE(instrumental)
EXTD=YEAR: 1998
EXTT0=
EXTT1=
EXTT2=
PLAYORDER=
